<svg xmlns="http://www.w3.org/2000/svg" xml:space="preserve" xmlns:xlink="http://www.w3.org/1999/xlink" style="max-width: 100%;height: auto;" width="980" height="980" viewBox="0 0 980 980">
<defs><mask id="qrmask"><g fill="#ffffff"><g>
<g transform="translate(200,40) scale(3.4333333333333)"><rect width="6" height="6"></rect></g>
<g transform="translate(240,40) scale(3.4333333333333)"><rect width="6" height="6"></rect></g>
<g transform="translate(260,40) scale(3.4333333333333)"><rect width="6" height="6"></rect></g>
<g transform="translate(300,40) scale(3.4333333333333)"><rect width="6" height="6"></rect></g>
<g transform="translate(320,40) scale(3.4333333333333)"><rect width="6" height="6"></rect></g>
<g transform="translate(340,40) scale(3.4333333333333)"><rect width="6" height="6"></rect></g>
<g transform="translate(380,40) scale(3.4333333333333)"><rect width="6" height="6"></rect></g>
<g transform="translate(400,40) scale(3.4333333333333)"><rect width="6" height="6"></rect></g>
<g transform="translate(420,40) scale(3.4333333333333)"><rect width="6" height="6"></rect></g>
<g transform="translate(480,40) scale(3.4333333333333)"><rect width="6" height="6"></rect></g>
<g transform="translate(540,40) scale(3.4333333333333)"><rect width="6" height="6"></rect></g>
<g transform="translate(580,40) scale(3.4333333333333)"><rect width="6" height="6"></rect></g>
<g transform="translate(620,40) scale(3.4333333333333)"><rect width="6" height="6"></rect></g>
<g transform="translate(640,40) scale(3.4333333333333)"><rect width="6" height="6"></rect></g>
<g transform="translate(680,40) scale(3.4333333333333)"><rect width="6" height="6"></rect></g>
<g transform="translate(760,40) scale(3.4333333333333)"><rect width="6" height="6"></rect></g>
<g transform="translate(200,60) scale(3.4333333333333)"><rect width="6" height="6"></rect></g>
<g transform="translate(220,60) scale(3.4333333333333)"><rect width="6" height="6"></rect></g>
<g transform="translate(300,60) scale(3.4333333333333)"><rect width="6" height="6"></rect></g>
<g transform="translate(320,60) scale(3.4333333333333)"><rect width="6" height="6"></rect></g>
<g transform="translate(400,60) scale(3.4333333333333)"><rect width="6" height="6"></rect></g>
<g transform="translate(420,60) scale(3.4333333333333)"><rect width="6" height="6"></rect></g>
<g transform="translate(460,60) scale(3.4333333333333)"><rect width="6" height="6"></rect></g>
<g transform="translate(480,60) scale(3.4333333333333)"><rect width="6" height="6"></rect></g>
<g transform="translate(540,60) scale(3.4333333333333)"><rect width="6" height="6"></rect></g>
<g transform="translate(740,60) scale(3.4333333333333)"><rect width="6" height="6"></rect></g>
<g transform="translate(200,80) scale(3.4333333333333)"><rect width="6" height="6"></rect></g>
<g transform="translate(220,80) scale(3.4333333333333)"><rect width="6" height="6"></rect></g>
<g transform="translate(240,80) scale(3.4333333333333)"><rect width="6" height="6"></rect></g>
<g transform="translate(320,80) scale(3.4333333333333)"><rect width="6" height="6"></rect></g>
<g transform="translate(340,80) scale(3.4333333333333)"><rect width="6" height="6"></rect></g>
<g transform="translate(360,80) scale(3.4333333333333)"><rect width="6" height="6"></rect></g>
<g transform="translate(400,80) scale(3.4333333333333)"><rect width="6" height="6"></rect></g>
<g transform="translate(420,80) scale(3.4333333333333)"><rect width="6" height="6"></rect></g>
<g transform="translate(520,80) scale(3.4333333333333)"><rect width="6" height="6"></rect></g>
<g transform="translate(600,80) scale(3.4333333333333)"><rect width="6" height="6"></rect></g>
<g transform="translate(680,80) scale(3.4333333333333)"><rect width="6" height="6"></rect></g>
<g transform="translate(700,80) scale(3.4333333333333)"><rect width="6" height="6"></rect></g>
<g transform="translate(740,80) scale(3.4333333333333)"><rect width="6" height="6"></rect></g>
<g transform="translate(240,100) scale(3.4333333333333)"><rect width="6" height="6"></rect></g>
<g transform="translate(360,100) scale(3.4333333333333)"><rect width="6" height="6"></rect></g>
<g transform="translate(420,100) scale(3.4333333333333)"><rect width="6" height="6"></rect></g>
<g transform="translate(440,100) scale(3.4333333333333)"><rect width="6" height="6"></rect></g>
<g transform="translate(460,100) scale(3.4333333333333)"><rect width="6" height="6"></rect></g>
<g transform="translate(500,100) scale(3.4333333333333)"><rect width="6" height="6"></rect></g>
<g transform="translate(520,100) scale(3.4333333333333)"><rect width="6" height="6"></rect></g>
<g transform="translate(540,100) scale(3.4333333333333)"><rect width="6" height="6"></rect></g>
<g transform="translate(560,100) scale(3.4333333333333)"><rect width="6" height="6"></rect></g>
<g transform="translate(580,100) scale(3.4333333333333)"><rect width="6" height="6"></rect></g>
<g transform="translate(600,100) scale(3.4333333333333)"><rect width="6" height="6"></rect></g>
<g transform="translate(640,100) scale(3.4333333333333)"><rect width="6" height="6"></rect></g>
<g transform="translate(660,100) scale(3.4333333333333)"><rect width="6" height="6"></rect></g>
<g transform="translate(740,100) scale(3.4333333333333)"><rect width="6" height="6"></rect></g>
<g transform="translate(760,100) scale(3.4333333333333)"><rect width="6" height="6"></rect></g>
<g transform="translate(260,120) scale(3.4333333333333)"><rect width="6" height="6"></rect></g>
<g transform="translate(280,120) scale(3.4333333333333)"><rect width="6" height="6"></rect></g>
<g transform="translate(300,120) scale(3.4333333333333)"><rect width="6" height="6"></rect></g>
<g transform="translate(340,120) scale(3.4333333333333)"><rect width="6" height="6"></rect></g>
<g transform="translate(380,120) scale(3.4333333333333)"><rect width="6" height="6"></rect></g>
<g transform="translate(400,120) scale(3.4333333333333)"><rect width="6" height="6"></rect></g>
<g transform="translate(440,120) scale(3.4333333333333)"><rect width="6" height="6"></rect></g>
<g transform="translate(460,120) scale(3.4333333333333)"><rect width="6" height="6"></rect></g>
<g transform="translate(480,120) scale(3.4333333333333)"><rect width="6" height="6"></rect></g>
<g transform="translate(500,120) scale(3.4333333333333)"><rect width="6" height="6"></rect></g>
<g transform="translate(520,120) scale(3.4333333333333)"><rect width="6" height="6"></rect></g>
<g transform="translate(620,120) scale(3.4333333333333)"><rect width="6" height="6"></rect></g>
<g transform="translate(640,120) scale(3.4333333333333)"><rect width="6" height="6"></rect></g>
<g transform="translate(660,120) scale(3.4333333333333)"><rect width="6" height="6"></rect></g>
<g transform="translate(680,120) scale(3.4333333333333)"><rect width="6" height="6"></rect></g>
<g transform="translate(720,120) scale(3.4333333333333)"><rect width="6" height="6"></rect></g>
<g transform="translate(740,120) scale(3.4333333333333)"><rect width="6" height="6"></rect></g>
<g transform="translate(760,120) scale(3.4333333333333)"><rect width="6" height="6"></rect></g>
<g transform="translate(200,140) scale(3.4333333333333)"><rect width="6" height="6"></rect></g>
<g transform="translate(240,140) scale(3.4333333333333)"><rect width="6" height="6"></rect></g>
<g transform="translate(280,140) scale(3.4333333333333)"><rect width="6" height="6"></rect></g>
<g transform="translate(340,140) scale(3.4333333333333)"><rect width="6" height="6"></rect></g>
<g transform="translate(380,140) scale(3.4333333333333)"><rect width="6" height="6"></rect></g>
<g transform="translate(400,140) scale(3.4333333333333)"><rect width="6" height="6"></rect></g>
<g transform="translate(420,140) scale(3.4333333333333)"><rect width="6" height="6"></rect></g>
<g transform="translate(440,140) scale(3.4333333333333)"><rect width="6" height="6"></rect></g>
<g transform="translate(520,140) scale(3.4333333333333)"><rect width="6" height="6"></rect></g>
<g transform="translate(580,140) scale(3.4333333333333)"><rect width="6" height="6"></rect></g>
<g transform="translate(600,140) scale(3.4333333333333)"><rect width="6" height="6"></rect></g>
<g transform="translate(620,140) scale(3.4333333333333)"><rect width="6" height="6"></rect></g>
<g transform="translate(660,140) scale(3.4333333333333)"><rect width="6" height="6"></rect></g>
<g transform="translate(680,140) scale(3.4333333333333)"><rect width="6" height="6"></rect></g>
<g transform="translate(700,140) scale(3.4333333333333)"><rect width="6" height="6"></rect></g>
<g transform="translate(200,160) scale(3.4333333333333)"><rect width="6" height="6"></rect></g>
<g transform="translate(240,160) scale(3.4333333333333)"><rect width="6" height="6"></rect></g>
<g transform="translate(280,160) scale(3.4333333333333)"><rect width="6" height="6"></rect></g>
<g transform="translate(320,160) scale(3.4333333333333)"><rect width="6" height="6"></rect></g>
<g transform="translate(360,160) scale(3.4333333333333)"><rect width="6" height="6"></rect></g>
<g transform="translate(400,160) scale(3.4333333333333)"><rect width="6" height="6"></rect></g>
<g transform="translate(440,160) scale(3.4333333333333)"><rect width="6" height="6"></rect></g>
<g transform="translate(480,160) scale(3.4333333333333)"><rect width="6" height="6"></rect></g>
<g transform="translate(520,160) scale(3.4333333333333)"><rect width="6" height="6"></rect></g>
<g transform="translate(560,160) scale(3.4333333333333)"><rect width="6" height="6"></rect></g>
<g transform="translate(600,160) scale(3.4333333333333)"><rect width="6" height="6"></rect></g>
<g transform="translate(640,160) scale(3.4333333333333)"><rect width="6" height="6"></rect></g>
<g transform="translate(680,160) scale(3.4333333333333)"><rect width="6" height="6"></rect></g>
<g transform="translate(720,160) scale(3.4333333333333)"><rect width="6" height="6"></rect></g>
<g transform="translate(760,160) scale(3.4333333333333)"><rect width="6" height="6"></rect></g>
<g transform="translate(200,180) scale(3.4333333333333)"><rect width="6" height="6"></rect></g>
<g transform="translate(240,180) scale(3.4333333333333)"><rect width="6" height="6"></rect></g>
<g transform="translate(260,180) scale(3.4333333333333)"><rect width="6" height="6"></rect></g>
<g transform="translate(280,180) scale(3.4333333333333)"><rect width="6" height="6"></rect></g>
<g transform="translate(300,180) scale(3.4333333333333)"><rect width="6" height="6"></rect></g>
<g transform="translate(320,180) scale(3.4333333333333)"><rect width="6" height="6"></rect></g>
<g transform="translate(400,180) scale(3.4333333333333)"><rect width="6" height="6"></rect></g>
<g transform="translate(440,180) scale(3.4333333333333)"><rect width="6" height="6"></rect></g>
<g transform="translate(520,180) scale(3.4333333333333)"><rect width="6" height="6"></rect></g>
<g transform="translate(540,180) scale(3.4333333333333)"><rect width="6" height="6"></rect></g>
<g transform="translate(620,180) scale(3.4333333333333)"><rect width="6" height="6"></rect></g>
<g transform="translate(640,180) scale(3.4333333333333)"><rect width="6" height="6"></rect></g>
<g transform="translate(680,180) scale(3.4333333333333)"><rect width="6" height="6"></rect></g>
<g transform="translate(720,180) scale(3.4333333333333)"><rect width="6" height="6"></rect></g>
<g transform="translate(760,180) scale(3.4333333333333)"><rect width="6" height="6"></rect></g>
<g transform="translate(80,200) scale(3.4333333333333)"><rect width="6" height="6"></rect></g>
<g transform="translate(100,200) scale(3.4333333333333)"><rect width="6" height="6"></rect></g>
<g transform="translate(120,200) scale(3.4333333333333)"><rect width="6" height="6"></rect></g>
<g transform="translate(160,200) scale(3.4333333333333)"><rect width="6" height="6"></rect></g>
<g transform="translate(200,200) scale(3.4333333333333)"><rect width="6" height="6"></rect></g>
<g transform="translate(240,200) scale(3.4333333333333)"><rect width="6" height="6"></rect></g>
<g transform="translate(260,200) scale(3.4333333333333)"><rect width="6" height="6"></rect></g>
<g transform="translate(320,200) scale(3.4333333333333)"><rect width="6" height="6"></rect></g>
<g transform="translate(340,200) scale(3.4333333333333)"><rect width="6" height="6"></rect></g>
<g transform="translate(360,200) scale(3.4333333333333)"><rect width="6" height="6"></rect></g>
<g transform="translate(380,200) scale(3.4333333333333)"><rect width="6" height="6"></rect></g>
<g transform="translate(400,200) scale(3.4333333333333)"><rect width="6" height="6"></rect></g>
<g transform="translate(440,200) scale(3.4333333333333)"><rect width="6" height="6"></rect></g>
<g transform="translate(460,200) scale(3.4333333333333)"><rect width="6" height="6"></rect></g>
<g transform="translate(480,200) scale(3.4333333333333)"><rect width="6" height="6"></rect></g>
<g transform="translate(500,200) scale(3.4333333333333)"><rect width="6" height="6"></rect></g>
<g transform="translate(520,200) scale(3.4333333333333)"><rect width="6" height="6"></rect></g>
<g transform="translate(620,200) scale(3.4333333333333)"><rect width="6" height="6"></rect></g>
<g transform="translate(640,200) scale(3.4333333333333)"><rect width="6" height="6"></rect></g>
<g transform="translate(660,200) scale(3.4333333333333)"><rect width="6" height="6"></rect></g>
<g transform="translate(720,200) scale(3.4333333333333)"><rect width="6" height="6"></rect></g>
<g transform="translate(780,200) scale(3.4333333333333)"><rect width="6" height="6"></rect></g>
<g transform="translate(800,200) scale(3.4333333333333)"><rect width="6" height="6"></rect></g>
<g transform="translate(820,200) scale(3.4333333333333)"><rect width="6" height="6"></rect></g>
<g transform="translate(880,200) scale(3.4333333333333)"><rect width="6" height="6"></rect></g>
<g transform="translate(900,200) scale(3.4333333333333)"><rect width="6" height="6"></rect></g>
<g transform="translate(920,200) scale(3.4333333333333)"><rect width="6" height="6"></rect></g>
<g transform="translate(40,220) scale(3.4333333333333)"><rect width="6" height="6"></rect></g>
<g transform="translate(60,220) scale(3.4333333333333)"><rect width="6" height="6"></rect></g>
<g transform="translate(80,220) scale(3.4333333333333)"><rect width="6" height="6"></rect></g>
<g transform="translate(120,220) scale(3.4333333333333)"><rect width="6" height="6"></rect></g>
<g transform="translate(140,220) scale(3.4333333333333)"><rect width="6" height="6"></rect></g>
<g transform="translate(200,220) scale(3.4333333333333)"><rect width="6" height="6"></rect></g>
<g transform="translate(240,220) scale(3.4333333333333)"><rect width="6" height="6"></rect></g>
<g transform="translate(260,220) scale(3.4333333333333)"><rect width="6" height="6"></rect></g>
<g transform="translate(280,220) scale(3.4333333333333)"><rect width="6" height="6"></rect></g>
<g transform="translate(300,220) scale(3.4333333333333)"><rect width="6" height="6"></rect></g>
<g transform="translate(320,220) scale(3.4333333333333)"><rect width="6" height="6"></rect></g>
<g transform="translate(340,220) scale(3.4333333333333)"><rect width="6" height="6"></rect></g>
<g transform="translate(380,220) scale(3.4333333333333)"><rect width="6" height="6"></rect></g>
<g transform="translate(400,220) scale(3.4333333333333)"><rect width="6" height="6"></rect></g>
<g transform="translate(420,220) scale(3.4333333333333)"><rect width="6" height="6"></rect></g>
<g transform="translate(440,220) scale(3.4333333333333)"><rect width="6" height="6"></rect></g>
<g transform="translate(460,220) scale(3.4333333333333)"><rect width="6" height="6"></rect></g>
<g transform="translate(520,220) scale(3.4333333333333)"><rect width="6" height="6"></rect></g>
<g transform="translate(540,220) scale(3.4333333333333)"><rect width="6" height="6"></rect></g>
<g transform="translate(580,220) scale(3.4333333333333)"><rect width="6" height="6"></rect></g>
<g transform="translate(640,220) scale(3.4333333333333)"><rect width="6" height="6"></rect></g>
<g transform="translate(660,220) scale(3.4333333333333)"><rect width="6" height="6"></rect></g>
<g transform="translate(680,220) scale(3.4333333333333)"><rect width="6" height="6"></rect></g>
<g transform="translate(700,220) scale(3.4333333333333)"><rect width="6" height="6"></rect></g>
<g transform="translate(760,220) scale(3.4333333333333)"><rect width="6" height="6"></rect></g>
<g transform="translate(780,220) scale(3.4333333333333)"><rect width="6" height="6"></rect></g>
<g transform="translate(860,220) scale(3.4333333333333)"><rect width="6" height="6"></rect></g>
<g transform="translate(920,220) scale(3.4333333333333)"><rect width="6" height="6"></rect></g>
<g transform="translate(80,240) scale(3.4333333333333)"><rect width="6" height="6"></rect></g>
<g transform="translate(120,240) scale(3.4333333333333)"><rect width="6" height="6"></rect></g>
<g transform="translate(160,240) scale(3.4333333333333)"><rect width="6" height="6"></rect></g>
<g transform="translate(200,240) scale(3.4333333333333)"><rect width="6" height="6"></rect></g>
<g transform="translate(240,240) scale(3.4333333333333)"><rect width="6" height="6"></rect></g>
<g transform="translate(280,240) scale(3.4333333333333)"><rect width="6" height="6"></rect></g>
<g transform="translate(300,240) scale(3.4333333333333)"><rect width="6" height="6"></rect></g>
<g transform="translate(320,240) scale(3.4333333333333)"><rect width="6" height="6"></rect></g>
<g transform="translate(360,240) scale(3.4333333333333)"><rect width="6" height="6"></rect></g>
<g transform="translate(420,240) scale(3.4333333333333)"><rect width="6" height="6"></rect></g>
<g transform="translate(460,240) scale(3.4333333333333)"><rect width="6" height="6"></rect></g>
<g transform="translate(480,240) scale(3.4333333333333)"><rect width="6" height="6"></rect></g>
<g transform="translate(520,240) scale(3.4333333333333)"><rect width="6" height="6"></rect></g>
<g transform="translate(540,240) scale(3.4333333333333)"><rect width="6" height="6"></rect></g>
<g transform="translate(580,240) scale(3.4333333333333)"><rect width="6" height="6"></rect></g>
<g transform="translate(700,240) scale(3.4333333333333)"><rect width="6" height="6"></rect></g>
<g transform="translate(720,240) scale(3.4333333333333)"><rect width="6" height="6"></rect></g>
<g transform="translate(740,240) scale(3.4333333333333)"><rect width="6" height="6"></rect></g>
<g transform="translate(800,240) scale(3.4333333333333)"><rect width="6" height="6"></rect></g>
<g transform="translate(820,240) scale(3.4333333333333)"><rect width="6" height="6"></rect></g>
<g transform="translate(840,240) scale(3.4333333333333)"><rect width="6" height="6"></rect></g>
<g transform="translate(900,240) scale(3.4333333333333)"><rect width="6" height="6"></rect></g>
<g transform="translate(40,260) scale(3.4333333333333)"><rect width="6" height="6"></rect></g>
<g transform="translate(80,260) scale(3.4333333333333)"><rect width="6" height="6"></rect></g>
<g transform="translate(100,260) scale(3.4333333333333)"><rect width="6" height="6"></rect></g>
<g transform="translate(180,260) scale(3.4333333333333)"><rect width="6" height="6"></rect></g>
<g transform="translate(200,260) scale(3.4333333333333)"><rect width="6" height="6"></rect></g>
<g transform="translate(220,260) scale(3.4333333333333)"><rect width="6" height="6"></rect></g>
<g transform="translate(260,260) scale(3.4333333333333)"><rect width="6" height="6"></rect></g>
<g transform="translate(280,260) scale(3.4333333333333)"><rect width="6" height="6"></rect></g>
<g transform="translate(300,260) scale(3.4333333333333)"><rect width="6" height="6"></rect></g>
<g transform="translate(340,260) scale(3.4333333333333)"><rect width="6" height="6"></rect></g>
<g transform="translate(360,260) scale(3.4333333333333)"><rect width="6" height="6"></rect></g>
<g transform="translate(400,260) scale(3.4333333333333)"><rect width="6" height="6"></rect></g>
<g transform="translate(460,260) scale(3.4333333333333)"><rect width="6" height="6"></rect></g>
<g transform="translate(560,260) scale(3.4333333333333)"><rect width="6" height="6"></rect></g>
<g transform="translate(580,260) scale(3.4333333333333)"><rect width="6" height="6"></rect></g>
<g transform="translate(600,260) scale(3.4333333333333)"><rect width="6" height="6"></rect></g>
<g transform="translate(680,260) scale(3.4333333333333)"><rect width="6" height="6"></rect></g>
<g transform="translate(720,260) scale(3.4333333333333)"><rect width="6" height="6"></rect></g>
<g transform="translate(760,260) scale(3.4333333333333)"><rect width="6" height="6"></rect></g>
<g transform="translate(820,260) scale(3.4333333333333)"><rect width="6" height="6"></rect></g>
<g transform="translate(840,260) scale(3.4333333333333)"><rect width="6" height="6"></rect></g>
<g transform="translate(860,260) scale(3.4333333333333)"><rect width="6" height="6"></rect></g>
<g transform="translate(880,260) scale(3.4333333333333)"><rect width="6" height="6"></rect></g>
<g transform="translate(900,260) scale(3.4333333333333)"><rect width="6" height="6"></rect></g>
<g transform="translate(920,260) scale(3.4333333333333)"><rect width="6" height="6"></rect></g>
<g transform="translate(40,280) scale(3.4333333333333)"><rect width="6" height="6"></rect></g>
<g transform="translate(80,280) scale(3.4333333333333)"><rect width="6" height="6"></rect></g>
<g transform="translate(100,280) scale(3.4333333333333)"><rect width="6" height="6"></rect></g>
<g transform="translate(160,280) scale(3.4333333333333)"><rect width="6" height="6"></rect></g>
<g transform="translate(180,280) scale(3.4333333333333)"><rect width="6" height="6"></rect></g>
<g transform="translate(200,280) scale(3.4333333333333)"><rect width="6" height="6"></rect></g>
<g transform="translate(280,280) scale(3.4333333333333)"><rect width="6" height="6"></rect></g>
<g transform="translate(300,280) scale(3.4333333333333)"><rect width="6" height="6"></rect></g>
<g transform="translate(360,280) scale(3.4333333333333)"><rect width="6" height="6"></rect></g>
<g transform="translate(380,280) scale(3.4333333333333)"><rect width="6" height="6"></rect></g>
<g transform="translate(400,280) scale(3.4333333333333)"><rect width="6" height="6"></rect></g>
<g transform="translate(480,280) scale(3.4333333333333)"><rect width="6" height="6"></rect></g>
<g transform="translate(540,280) scale(3.4333333333333)"><rect width="6" height="6"></rect></g>
<g transform="translate(560,280) scale(3.4333333333333)"><rect width="6" height="6"></rect></g>
<g transform="translate(600,280) scale(3.4333333333333)"><rect width="6" height="6"></rect></g>
<g transform="translate(640,280) scale(3.4333333333333)"><rect width="6" height="6"></rect></g>
<g transform="translate(660,280) scale(3.4333333333333)"><rect width="6" height="6"></rect></g>
<g transform="translate(700,280) scale(3.4333333333333)"><rect width="6" height="6"></rect></g>
<g transform="translate(720,280) scale(3.4333333333333)"><rect width="6" height="6"></rect></g>
<g transform="translate(740,280) scale(3.4333333333333)"><rect width="6" height="6"></rect></g>
<g transform="translate(900,280) scale(3.4333333333333)"><rect width="6" height="6"></rect></g>
<g transform="translate(180,300) scale(3.4333333333333)"><rect width="6" height="6"></rect></g>
<g transform="translate(200,300) scale(3.4333333333333)"><rect width="6" height="6"></rect></g>
<g transform="translate(240,300) scale(3.4333333333333)"><rect width="6" height="6"></rect></g>
<g transform="translate(260,300) scale(3.4333333333333)"><rect width="6" height="6"></rect></g>
<g transform="translate(300,300) scale(3.4333333333333)"><rect width="6" height="6"></rect></g>
<g transform="translate(360,300) scale(3.4333333333333)"><rect width="6" height="6"></rect></g>
<g transform="translate(440,300) scale(3.4333333333333)"><rect width="6" height="6"></rect></g>
<g transform="translate(480,300) scale(3.4333333333333)"><rect width="6" height="6"></rect></g>
<g transform="translate(520,300) scale(3.4333333333333)"><rect width="6" height="6"></rect></g>
<g transform="translate(540,300) scale(3.4333333333333)"><rect width="6" height="6"></rect></g>
<g transform="translate(640,300) scale(3.4333333333333)"><rect width="6" height="6"></rect></g>
<g transform="translate(660,300) scale(3.4333333333333)"><rect width="6" height="6"></rect></g>
<g transform="translate(680,300) scale(3.4333333333333)"><rect width="6" height="6"></rect></g>
<g transform="translate(740,300) scale(3.4333333333333)"><rect width="6" height="6"></rect></g>
<g transform="translate(760,300) scale(3.4333333333333)"><rect width="6" height="6"></rect></g>
<g transform="translate(780,300) scale(3.4333333333333)"><rect width="6" height="6"></rect></g>
<g transform="translate(840,300) scale(3.4333333333333)"><rect width="6" height="6"></rect></g>
<g transform="translate(920,300) scale(3.4333333333333)"><rect width="6" height="6"></rect></g>
<g transform="translate(40,320) scale(3.4333333333333)"><rect width="6" height="6"></rect></g>
<g transform="translate(60,320) scale(3.4333333333333)"><rect width="6" height="6"></rect></g>
<g transform="translate(100,320) scale(3.4333333333333)"><rect width="6" height="6"></rect></g>
<g transform="translate(120,320) scale(3.4333333333333)"><rect width="6" height="6"></rect></g>
<g transform="translate(160,320) scale(3.4333333333333)"><rect width="6" height="6"></rect></g>
<g transform="translate(200,320) scale(3.4333333333333)"><rect width="6" height="6"></rect></g>
<g transform="translate(220,320) scale(3.4333333333333)"><rect width="6" height="6"></rect></g>
<g transform="translate(240,320) scale(3.4333333333333)"><rect width="6" height="6"></rect></g>
<g transform="translate(280,320) scale(3.4333333333333)"><rect width="6" height="6"></rect></g>
<g transform="translate(300,320) scale(3.4333333333333)"><rect width="6" height="6"></rect></g>
<g transform="translate(320,320) scale(3.4333333333333)"><rect width="6" height="6"></rect></g>
<g transform="translate(340,320) scale(3.4333333333333)"><rect width="6" height="6"></rect></g>
<g transform="translate(360,320) scale(3.4333333333333)"><rect width="6" height="6"></rect></g>
<g transform="translate(380,320) scale(3.4333333333333)"><rect width="6" height="6"></rect></g>
<g transform="translate(420,320) scale(3.4333333333333)"><rect width="6" height="6"></rect></g>
<g transform="translate(440,320) scale(3.4333333333333)"><rect width="6" height="6"></rect></g>
<g transform="translate(460,320) scale(3.4333333333333)"><rect width="6" height="6"></rect></g>
<g transform="translate(520,320) scale(3.4333333333333)"><rect width="6" height="6"></rect></g>
<g transform="translate(540,320) scale(3.4333333333333)"><rect width="6" height="6"></rect></g>
<g transform="translate(580,320) scale(3.4333333333333)"><rect width="6" height="6"></rect></g>
<g transform="translate(700,320) scale(3.4333333333333)"><rect width="6" height="6"></rect></g>
<g transform="translate(720,320) scale(3.4333333333333)"><rect width="6" height="6"></rect></g>
<g transform="translate(740,320) scale(3.4333333333333)"><rect width="6" height="6"></rect></g>
<g transform="translate(760,320) scale(3.4333333333333)"><rect width="6" height="6"></rect></g>
<g transform="translate(780,320) scale(3.4333333333333)"><rect width="6" height="6"></rect></g>
<g transform="translate(800,320) scale(3.4333333333333)"><rect width="6" height="6"></rect></g>
<g transform="translate(820,320) scale(3.4333333333333)"><rect width="6" height="6"></rect></g>
<g transform="translate(840,320) scale(3.4333333333333)"><rect width="6" height="6"></rect></g>
<g transform="translate(880,320) scale(3.4333333333333)"><rect width="6" height="6"></rect></g>
<g transform="translate(60,340) scale(3.4333333333333)"><rect width="6" height="6"></rect></g>
<g transform="translate(80,340) scale(3.4333333333333)"><rect width="6" height="6"></rect></g>
<g transform="translate(140,340) scale(3.4333333333333)"><rect width="6" height="6"></rect></g>
<g transform="translate(180,340) scale(3.4333333333333)"><rect width="6" height="6"></rect></g>
<g transform="translate(220,340) scale(3.4333333333333)"><rect width="6" height="6"></rect></g>
<g transform="translate(240,340) scale(3.4333333333333)"><rect width="6" height="6"></rect></g>
<g transform="translate(380,340) scale(3.4333333333333)"><rect width="6" height="6"></rect></g>
<g transform="translate(400,340) scale(3.4333333333333)"><rect width="6" height="6"></rect></g>
<g transform="translate(440,340) scale(3.4333333333333)"><rect width="6" height="6"></rect></g>
<g transform="translate(500,340) scale(3.4333333333333)"><rect width="6" height="6"></rect></g>
<g transform="translate(520,340) scale(3.4333333333333)"><rect width="6" height="6"></rect></g>
<g transform="translate(540,340) scale(3.4333333333333)"><rect width="6" height="6"></rect></g>
<g transform="translate(600,340) scale(3.4333333333333)"><rect width="6" height="6"></rect></g>
<g transform="translate(620,340) scale(3.4333333333333)"><rect width="6" height="6"></rect></g>
<g transform="translate(680,340) scale(3.4333333333333)"><rect width="6" height="6"></rect></g>
<g transform="translate(700,340) scale(3.4333333333333)"><rect width="6" height="6"></rect></g>
<g transform="translate(740,340) scale(3.4333333333333)"><rect width="6" height="6"></rect></g>
<g transform="translate(760,340) scale(3.4333333333333)"><rect width="6" height="6"></rect></g>
<g transform="translate(820,340) scale(3.4333333333333)"><rect width="6" height="6"></rect></g>
<g transform="translate(840,340) scale(3.4333333333333)"><rect width="6" height="6"></rect></g>
<g transform="translate(860,340) scale(3.4333333333333)"><rect width="6" height="6"></rect></g>
<g transform="translate(880,340) scale(3.4333333333333)"><rect width="6" height="6"></rect></g>
<g transform="translate(920,340) scale(3.4333333333333)"><rect width="6" height="6"></rect></g>
<g transform="translate(40,360) scale(3.4333333333333)"><rect width="6" height="6"></rect></g>
<g transform="translate(60,360) scale(3.4333333333333)"><rect width="6" height="6"></rect></g>
<g transform="translate(160,360) scale(3.4333333333333)"><rect width="6" height="6"></rect></g>
<g transform="translate(180,360) scale(3.4333333333333)"><rect width="6" height="6"></rect></g>
<g transform="translate(200,360) scale(3.4333333333333)"><rect width="6" height="6"></rect></g>
<g transform="translate(220,360) scale(3.4333333333333)"><rect width="6" height="6"></rect></g>
<g transform="translate(280,360) scale(3.4333333333333)"><rect width="6" height="6"></rect></g>
<g transform="translate(300,360) scale(3.4333333333333)"><rect width="6" height="6"></rect></g>
<g transform="translate(320,360) scale(3.4333333333333)"><rect width="6" height="6"></rect></g>
<g transform="translate(340,360) scale(3.4333333333333)"><rect width="6" height="6"></rect></g>
<g transform="translate(380,360) scale(3.4333333333333)"><rect width="6" height="6"></rect></g>
<g transform="translate(480,360) scale(3.4333333333333)"><rect width="6" height="6"></rect></g>
<g transform="translate(520,360) scale(3.4333333333333)"><rect width="6" height="6"></rect></g>
<g transform="translate(560,360) scale(3.4333333333333)"><rect width="6" height="6"></rect></g>
<g transform="translate(580,360) scale(3.4333333333333)"><rect width="6" height="6"></rect></g>
<g transform="translate(660,360) scale(3.4333333333333)"><rect width="6" height="6"></rect></g>
<g transform="translate(700,360) scale(3.4333333333333)"><rect width="6" height="6"></rect></g>
<g transform="translate(720,360) scale(3.4333333333333)"><rect width="6" height="6"></rect></g>
<g transform="translate(800,360) scale(3.4333333333333)"><rect width="6" height="6"></rect></g>
<g transform="translate(820,360) scale(3.4333333333333)"><rect width="6" height="6"></rect></g>
<g transform="translate(860,360) scale(3.4333333333333)"><rect width="6" height="6"></rect></g>
<g transform="translate(40,380) scale(3.4333333333333)"><rect width="6" height="6"></rect></g>
<g transform="translate(80,380) scale(3.4333333333333)"><rect width="6" height="6"></rect></g>
<g transform="translate(340,380) scale(3.4333333333333)"><rect width="6" height="6"></rect></g>
<g transform="translate(360,380) scale(3.4333333333333)"><rect width="6" height="6"></rect></g>
<g transform="translate(380,380) scale(3.4333333333333)"><rect width="6" height="6"></rect></g>
<g transform="translate(400,380) scale(3.4333333333333)"><rect width="6" height="6"></rect></g>
<g transform="translate(440,380) scale(3.4333333333333)"><rect width="6" height="6"></rect></g>
<g transform="translate(480,380) scale(3.4333333333333)"><rect width="6" height="6"></rect></g>
<g transform="translate(500,380) scale(3.4333333333333)"><rect width="6" height="6"></rect></g>
<g transform="translate(580,380) scale(3.4333333333333)"><rect width="6" height="6"></rect></g>
<g transform="translate(600,380) scale(3.4333333333333)"><rect width="6" height="6"></rect></g>
<g transform="translate(640,380) scale(3.4333333333333)"><rect width="6" height="6"></rect></g>
<g transform="translate(760,380) scale(3.4333333333333)"><rect width="6" height="6"></rect></g>
<g transform="translate(780,380) scale(3.4333333333333)"><rect width="6" height="6"></rect></g>
<g transform="translate(840,380) scale(3.4333333333333)"><rect width="6" height="6"></rect></g>
<g transform="translate(880,380) scale(3.4333333333333)"><rect width="6" height="6"></rect></g>
<g transform="translate(920,380) scale(3.4333333333333)"><rect width="6" height="6"></rect></g>
<g transform="translate(40,400) scale(3.4333333333333)"><rect width="6" height="6"></rect></g>
<g transform="translate(60,400) scale(3.4333333333333)"><rect width="6" height="6"></rect></g>
<g transform="translate(120,400) scale(3.4333333333333)"><rect width="6" height="6"></rect></g>
<g transform="translate(140,400) scale(3.4333333333333)"><rect width="6" height="6"></rect></g>
<g transform="translate(160,400) scale(3.4333333333333)"><rect width="6" height="6"></rect></g>
<g transform="translate(200,400) scale(3.4333333333333)"><rect width="6" height="6"></rect></g>
<g transform="translate(220,400) scale(3.4333333333333)"><rect width="6" height="6"></rect></g>
<g transform="translate(240,400) scale(3.4333333333333)"><rect width="6" height="6"></rect></g>
<g transform="translate(280,400) scale(3.4333333333333)"><rect width="6" height="6"></rect></g>
<g transform="translate(300,400) scale(3.4333333333333)"><rect width="6" height="6"></rect></g>
<g transform="translate(340,400) scale(3.4333333333333)"><rect width="6" height="6"></rect></g>
<g transform="translate(360,400) scale(3.4333333333333)"><rect width="6" height="6"></rect></g>
<g transform="translate(380,400) scale(3.4333333333333)"><rect width="6" height="6"></rect></g>
<g transform="translate(400,400) scale(3.4333333333333)"><rect width="6" height="6"></rect></g>
<g transform="translate(440,400) scale(3.4333333333333)"><rect width="6" height="6"></rect></g>
<g transform="translate(600,400) scale(3.4333333333333)"><rect width="6" height="6"></rect></g>
<g transform="translate(660,400) scale(3.4333333333333)"><rect width="6" height="6"></rect></g>
<g transform="translate(720,400) scale(3.4333333333333)"><rect width="6" height="6"></rect></g>
<g transform="translate(800,400) scale(3.4333333333333)"><rect width="6" height="6"></rect></g>
<g transform="translate(840,400) scale(3.4333333333333)"><rect width="6" height="6"></rect></g>
<g transform="translate(860,400) scale(3.4333333333333)"><rect width="6" height="6"></rect></g>
<g transform="translate(900,400) scale(3.4333333333333)"><rect width="6" height="6"></rect></g>
<g transform="translate(40,420) scale(3.4333333333333)"><rect width="6" height="6"></rect></g>
<g transform="translate(80,420) scale(3.4333333333333)"><rect width="6" height="6"></rect></g>
<g transform="translate(100,420) scale(3.4333333333333)"><rect width="6" height="6"></rect></g>
<g transform="translate(180,420) scale(3.4333333333333)"><rect width="6" height="6"></rect></g>
<g transform="translate(200,420) scale(3.4333333333333)"><rect width="6" height="6"></rect></g>
<g transform="translate(240,420) scale(3.4333333333333)"><rect width="6" height="6"></rect></g>
<g transform="translate(340,420) scale(3.4333333333333)"><rect width="6" height="6"></rect></g>
<g transform="translate(380,420) scale(3.4333333333333)"><rect width="6" height="6"></rect></g>
<g transform="translate(400,420) scale(3.4333333333333)"><rect width="6" height="6"></rect></g>
<g transform="translate(420,420) scale(3.4333333333333)"><rect width="6" height="6"></rect></g>
<g transform="translate(440,420) scale(3.4333333333333)"><rect width="6" height="6"></rect></g>
<g transform="translate(460,420) scale(3.4333333333333)"><rect width="6" height="6"></rect></g>
<g transform="translate(480,420) scale(3.4333333333333)"><rect width="6" height="6"></rect></g>
<g transform="translate(580,420) scale(3.4333333333333)"><rect width="6" height="6"></rect></g>
<g transform="translate(620,420) scale(3.4333333333333)"><rect width="6" height="6"></rect></g>
<g transform="translate(660,420) scale(3.4333333333333)"><rect width="6" height="6"></rect></g>
<g transform="translate(680,420) scale(3.4333333333333)"><rect width="6" height="6"></rect></g>
<g transform="translate(720,420) scale(3.4333333333333)"><rect width="6" height="6"></rect></g>
<g transform="translate(740,420) scale(3.4333333333333)"><rect width="6" height="6"></rect></g>
<g transform="translate(780,420) scale(3.4333333333333)"><rect width="6" height="6"></rect></g>
<g transform="translate(800,420) scale(3.4333333333333)"><rect width="6" height="6"></rect></g>
<g transform="translate(840,420) scale(3.4333333333333)"><rect width="6" height="6"></rect></g>
<g transform="translate(860,420) scale(3.4333333333333)"><rect width="6" height="6"></rect></g>
<g transform="translate(880,420) scale(3.4333333333333)"><rect width="6" height="6"></rect></g>
<g transform="translate(900,420) scale(3.4333333333333)"><rect width="6" height="6"></rect></g>
<g transform="translate(40,440) scale(3.4333333333333)"><rect width="6" height="6"></rect></g>
<g transform="translate(120,440) scale(3.4333333333333)"><rect width="6" height="6"></rect></g>
<g transform="translate(140,440) scale(3.4333333333333)"><rect width="6" height="6"></rect></g>
<g transform="translate(160,440) scale(3.4333333333333)"><rect width="6" height="6"></rect></g>
<g transform="translate(180,440) scale(3.4333333333333)"><rect width="6" height="6"></rect></g>
<g transform="translate(200,440) scale(3.4333333333333)"><rect width="6" height="6"></rect></g>
<g transform="translate(300,440) scale(3.4333333333333)"><rect width="6" height="6"></rect></g>
<g transform="translate(340,440) scale(3.4333333333333)"><rect width="6" height="6"></rect></g>
<g transform="translate(380,440) scale(3.4333333333333)"><rect width="6" height="6"></rect></g>
<g transform="translate(420,440) scale(3.4333333333333)"><rect width="6" height="6"></rect></g>
<g transform="translate(440,440) scale(3.4333333333333)"><rect width="6" height="6"></rect></g>
<g transform="translate(460,440) scale(3.4333333333333)"><rect width="6" height="6"></rect></g>
<g transform="translate(480,440) scale(3.4333333333333)"><rect width="6" height="6"></rect></g>
<g transform="translate(500,440) scale(3.4333333333333)"><rect width="6" height="6"></rect></g>
<g transform="translate(520,440) scale(3.4333333333333)"><rect width="6" height="6"></rect></g>
<g transform="translate(580,440) scale(3.4333333333333)"><rect width="6" height="6"></rect></g>
<g transform="translate(620,440) scale(3.4333333333333)"><rect width="6" height="6"></rect></g>
<g transform="translate(660,440) scale(3.4333333333333)"><rect width="6" height="6"></rect></g>
<g transform="translate(760,440) scale(3.4333333333333)"><rect width="6" height="6"></rect></g>
<g transform="translate(780,440) scale(3.4333333333333)"><rect width="6" height="6"></rect></g>
<g transform="translate(800,440) scale(3.4333333333333)"><rect width="6" height="6"></rect></g>
<g transform="translate(820,440) scale(3.4333333333333)"><rect width="6" height="6"></rect></g>
<g transform="translate(840,440) scale(3.4333333333333)"><rect width="6" height="6"></rect></g>
<g transform="translate(900,440) scale(3.4333333333333)"><rect width="6" height="6"></rect></g>
<g transform="translate(920,440) scale(3.4333333333333)"><rect width="6" height="6"></rect></g>
<g transform="translate(60,460) scale(3.4333333333333)"><rect width="6" height="6"></rect></g>
<g transform="translate(80,460) scale(3.4333333333333)"><rect width="6" height="6"></rect></g>
<g transform="translate(120,460) scale(3.4333333333333)"><rect width="6" height="6"></rect></g>
<g transform="translate(200,460) scale(3.4333333333333)"><rect width="6" height="6"></rect></g>
<g transform="translate(260,460) scale(3.4333333333333)"><rect width="6" height="6"></rect></g>
<g transform="translate(280,460) scale(3.4333333333333)"><rect width="6" height="6"></rect></g>
<g transform="translate(320,460) scale(3.4333333333333)"><rect width="6" height="6"></rect></g>
<g transform="translate(340,460) scale(3.4333333333333)"><rect width="6" height="6"></rect></g>
<g transform="translate(360,460) scale(3.4333333333333)"><rect width="6" height="6"></rect></g>
<g transform="translate(380,460) scale(3.4333333333333)"><rect width="6" height="6"></rect></g>
<g transform="translate(400,460) scale(3.4333333333333)"><rect width="6" height="6"></rect></g>
<g transform="translate(420,460) scale(3.4333333333333)"><rect width="6" height="6"></rect></g>
<g transform="translate(440,460) scale(3.4333333333333)"><rect width="6" height="6"></rect></g>
<g transform="translate(520,460) scale(3.4333333333333)"><rect width="6" height="6"></rect></g>
<g transform="translate(540,460) scale(3.4333333333333)"><rect width="6" height="6"></rect></g>
<g transform="translate(560,460) scale(3.4333333333333)"><rect width="6" height="6"></rect></g>
<g transform="translate(600,460) scale(3.4333333333333)"><rect width="6" height="6"></rect></g>
<g transform="translate(640,460) scale(3.4333333333333)"><rect width="6" height="6"></rect></g>
<g transform="translate(660,460) scale(3.4333333333333)"><rect width="6" height="6"></rect></g>
<g transform="translate(740,460) scale(3.4333333333333)"><rect width="6" height="6"></rect></g>
<g transform="translate(760,460) scale(3.4333333333333)"><rect width="6" height="6"></rect></g>
<g transform="translate(840,460) scale(3.4333333333333)"><rect width="6" height="6"></rect></g>
<g transform="translate(860,460) scale(3.4333333333333)"><rect width="6" height="6"></rect></g>
<g transform="translate(920,460) scale(3.4333333333333)"><rect width="6" height="6"></rect></g>
<g transform="translate(40,480) scale(3.4333333333333)"><rect width="6" height="6"></rect></g>
<g transform="translate(60,480) scale(3.4333333333333)"><rect width="6" height="6"></rect></g>
<g transform="translate(80,480) scale(3.4333333333333)"><rect width="6" height="6"></rect></g>
<g transform="translate(100,480) scale(3.4333333333333)"><rect width="6" height="6"></rect></g>
<g transform="translate(120,480) scale(3.4333333333333)"><rect width="6" height="6"></rect></g>
<g transform="translate(160,480) scale(3.4333333333333)"><rect width="6" height="6"></rect></g>
<g transform="translate(200,480) scale(3.4333333333333)"><rect width="6" height="6"></rect></g>
<g transform="translate(220,480) scale(3.4333333333333)"><rect width="6" height="6"></rect></g>
<g transform="translate(240,480) scale(3.4333333333333)"><rect width="6" height="6"></rect></g>
<g transform="translate(360,480) scale(3.4333333333333)"><rect width="6" height="6"></rect></g>
<g transform="translate(400,480) scale(3.4333333333333)"><rect width="6" height="6"></rect></g>
<g transform="translate(420,480) scale(3.4333333333333)"><rect width="6" height="6"></rect></g>
<g transform="translate(440,480) scale(3.4333333333333)"><rect width="6" height="6"></rect></g>
<g transform="translate(480,480) scale(3.4333333333333)"><rect width="6" height="6"></rect></g>
<g transform="translate(520,480) scale(3.4333333333333)"><rect width="6" height="6"></rect></g>
<g transform="translate(600,480) scale(3.4333333333333)"><rect width="6" height="6"></rect></g>
<g transform="translate(640,480) scale(3.4333333333333)"><rect width="6" height="6"></rect></g>
<g transform="translate(720,480) scale(3.4333333333333)"><rect width="6" height="6"></rect></g>
<g transform="translate(760,480) scale(3.4333333333333)"><rect width="6" height="6"></rect></g>
<g transform="translate(800,480) scale(3.4333333333333)"><rect width="6" height="6"></rect></g>
<g transform="translate(840,480) scale(3.4333333333333)"><rect width="6" height="6"></rect></g>
<g transform="translate(900,480) scale(3.4333333333333)"><rect width="6" height="6"></rect></g>
<g transform="translate(60,500) scale(3.4333333333333)"><rect width="6" height="6"></rect></g>
<g transform="translate(80,500) scale(3.4333333333333)"><rect width="6" height="6"></rect></g>
<g transform="translate(100,500) scale(3.4333333333333)"><rect width="6" height="6"></rect></g>
<g transform="translate(120,500) scale(3.4333333333333)"><rect width="6" height="6"></rect></g>
<g transform="translate(200,500) scale(3.4333333333333)"><rect width="6" height="6"></rect></g>
<g transform="translate(220,500) scale(3.4333333333333)"><rect width="6" height="6"></rect></g>
<g transform="translate(240,500) scale(3.4333333333333)"><rect width="6" height="6"></rect></g>
<g transform="translate(260,500) scale(3.4333333333333)"><rect width="6" height="6"></rect></g>
<g transform="translate(300,500) scale(3.4333333333333)"><rect width="6" height="6"></rect></g>
<g transform="translate(320,500) scale(3.4333333333333)"><rect width="6" height="6"></rect></g>
<g transform="translate(340,500) scale(3.4333333333333)"><rect width="6" height="6"></rect></g>
<g transform="translate(380,500) scale(3.4333333333333)"><rect width="6" height="6"></rect></g>
<g transform="translate(400,500) scale(3.4333333333333)"><rect width="6" height="6"></rect></g>
<g transform="translate(440,500) scale(3.4333333333333)"><rect width="6" height="6"></rect></g>
<g transform="translate(520,500) scale(3.4333333333333)"><rect width="6" height="6"></rect></g>
<g transform="translate(580,500) scale(3.4333333333333)"><rect width="6" height="6"></rect></g>
<g transform="translate(640,500) scale(3.4333333333333)"><rect width="6" height="6"></rect></g>
<g transform="translate(680,500) scale(3.4333333333333)"><rect width="6" height="6"></rect></g>
<g transform="translate(700,500) scale(3.4333333333333)"><rect width="6" height="6"></rect></g>
<g transform="translate(760,500) scale(3.4333333333333)"><rect width="6" height="6"></rect></g>
<g transform="translate(840,500) scale(3.4333333333333)"><rect width="6" height="6"></rect></g>
<g transform="translate(860,500) scale(3.4333333333333)"><rect width="6" height="6"></rect></g>
<g transform="translate(880,500) scale(3.4333333333333)"><rect width="6" height="6"></rect></g>
<g transform="translate(80,520) scale(3.4333333333333)"><rect width="6" height="6"></rect></g>
<g transform="translate(120,520) scale(3.4333333333333)"><rect width="6" height="6"></rect></g>
<g transform="translate(140,520) scale(3.4333333333333)"><rect width="6" height="6"></rect></g>
<g transform="translate(160,520) scale(3.4333333333333)"><rect width="6" height="6"></rect></g>
<g transform="translate(180,520) scale(3.4333333333333)"><rect width="6" height="6"></rect></g>
<g transform="translate(200,520) scale(3.4333333333333)"><rect width="6" height="6"></rect></g>
<g transform="translate(220,520) scale(3.4333333333333)"><rect width="6" height="6"></rect></g>
<g transform="translate(320,520) scale(3.4333333333333)"><rect width="6" height="6"></rect></g>
<g transform="translate(340,520) scale(3.4333333333333)"><rect width="6" height="6"></rect></g>
<g transform="translate(360,520) scale(3.4333333333333)"><rect width="6" height="6"></rect></g>
<g transform="translate(380,520) scale(3.4333333333333)"><rect width="6" height="6"></rect></g>
<g transform="translate(440,520) scale(3.4333333333333)"><rect width="6" height="6"></rect></g>
<g transform="translate(460,520) scale(3.4333333333333)"><rect width="6" height="6"></rect></g>
<g transform="translate(480,520) scale(3.4333333333333)"><rect width="6" height="6"></rect></g>
<g transform="translate(500,520) scale(3.4333333333333)"><rect width="6" height="6"></rect></g>
<g transform="translate(520,520) scale(3.4333333333333)"><rect width="6" height="6"></rect></g>
<g transform="translate(540,520) scale(3.4333333333333)"><rect width="6" height="6"></rect></g>
<g transform="translate(600,520) scale(3.4333333333333)"><rect width="6" height="6"></rect></g>
<g transform="translate(660,520) scale(3.4333333333333)"><rect width="6" height="6"></rect></g>
<g transform="translate(760,520) scale(3.4333333333333)"><rect width="6" height="6"></rect></g>
<g transform="translate(780,520) scale(3.4333333333333)"><rect width="6" height="6"></rect></g>
<g transform="translate(800,520) scale(3.4333333333333)"><rect width="6" height="6"></rect></g>
<g transform="translate(820,520) scale(3.4333333333333)"><rect width="6" height="6"></rect></g>
<g transform="translate(840,520) scale(3.4333333333333)"><rect width="6" height="6"></rect></g>
<g transform="translate(40,540) scale(3.4333333333333)"><rect width="6" height="6"></rect></g>
<g transform="translate(80,540) scale(3.4333333333333)"><rect width="6" height="6"></rect></g>
<g transform="translate(100,540) scale(3.4333333333333)"><rect width="6" height="6"></rect></g>
<g transform="translate(120,540) scale(3.4333333333333)"><rect width="6" height="6"></rect></g>
<g transform="translate(220,540) scale(3.4333333333333)"><rect width="6" height="6"></rect></g>
<g transform="translate(280,540) scale(3.4333333333333)"><rect width="6" height="6"></rect></g>
<g transform="translate(300,540) scale(3.4333333333333)"><rect width="6" height="6"></rect></g>
<g transform="translate(320,540) scale(3.4333333333333)"><rect width="6" height="6"></rect></g>
<g transform="translate(340,540) scale(3.4333333333333)"><rect width="6" height="6"></rect></g>
<g transform="translate(360,540) scale(3.4333333333333)"><rect width="6" height="6"></rect></g>
<g transform="translate(380,540) scale(3.4333333333333)"><rect width="6" height="6"></rect></g>
<g transform="translate(440,540) scale(3.4333333333333)"><rect width="6" height="6"></rect></g>
<g transform="translate(520,540) scale(3.4333333333333)"><rect width="6" height="6"></rect></g>
<g transform="translate(560,540) scale(3.4333333333333)"><rect width="6" height="6"></rect></g>
<g transform="translate(640,540) scale(3.4333333333333)"><rect width="6" height="6"></rect></g>
<g transform="translate(660,540) scale(3.4333333333333)"><rect width="6" height="6"></rect></g>
<g transform="translate(740,540) scale(3.4333333333333)"><rect width="6" height="6"></rect></g>
<g transform="translate(760,540) scale(3.4333333333333)"><rect width="6" height="6"></rect></g>
<g transform="translate(780,540) scale(3.4333333333333)"><rect width="6" height="6"></rect></g>
<g transform="translate(800,540) scale(3.4333333333333)"><rect width="6" height="6"></rect></g>
<g transform="translate(860,540) scale(3.4333333333333)"><rect width="6" height="6"></rect></g>
<g transform="translate(920,540) scale(3.4333333333333)"><rect width="6" height="6"></rect></g>
<g transform="translate(60,560) scale(3.4333333333333)"><rect width="6" height="6"></rect></g>
<g transform="translate(100,560) scale(3.4333333333333)"><rect width="6" height="6"></rect></g>
<g transform="translate(120,560) scale(3.4333333333333)"><rect width="6" height="6"></rect></g>
<g transform="translate(140,560) scale(3.4333333333333)"><rect width="6" height="6"></rect></g>
<g transform="translate(160,560) scale(3.4333333333333)"><rect width="6" height="6"></rect></g>
<g transform="translate(220,560) scale(3.4333333333333)"><rect width="6" height="6"></rect></g>
<g transform="translate(240,560) scale(3.4333333333333)"><rect width="6" height="6"></rect></g>
<g transform="translate(260,560) scale(3.4333333333333)"><rect width="6" height="6"></rect></g>
<g transform="translate(280,560) scale(3.4333333333333)"><rect width="6" height="6"></rect></g>
<g transform="translate(300,560) scale(3.4333333333333)"><rect width="6" height="6"></rect></g>
<g transform="translate(320,560) scale(3.4333333333333)"><rect width="6" height="6"></rect></g>
<g transform="translate(380,560) scale(3.4333333333333)"><rect width="6" height="6"></rect></g>
<g transform="translate(440,560) scale(3.4333333333333)"><rect width="6" height="6"></rect></g>
<g transform="translate(480,560) scale(3.4333333333333)"><rect width="6" height="6"></rect></g>
<g transform="translate(560,560) scale(3.4333333333333)"><rect width="6" height="6"></rect></g>
<g transform="translate(620,560) scale(3.4333333333333)"><rect width="6" height="6"></rect></g>
<g transform="translate(640,560) scale(3.4333333333333)"><rect width="6" height="6"></rect></g>
<g transform="translate(680,560) scale(3.4333333333333)"><rect width="6" height="6"></rect></g>
<g transform="translate(720,560) scale(3.4333333333333)"><rect width="6" height="6"></rect></g>
<g transform="translate(740,560) scale(3.4333333333333)"><rect width="6" height="6"></rect></g>
<g transform="translate(760,560) scale(3.4333333333333)"><rect width="6" height="6"></rect></g>
<g transform="translate(780,560) scale(3.4333333333333)"><rect width="6" height="6"></rect></g>
<g transform="translate(860,560) scale(3.4333333333333)"><rect width="6" height="6"></rect></g>
<g transform="translate(900,560) scale(3.4333333333333)"><rect width="6" height="6"></rect></g>
<g transform="translate(40,580) scale(3.4333333333333)"><rect width="6" height="6"></rect></g>
<g transform="translate(100,580) scale(3.4333333333333)"><rect width="6" height="6"></rect></g>
<g transform="translate(120,580) scale(3.4333333333333)"><rect width="6" height="6"></rect></g>
<g transform="translate(180,580) scale(3.4333333333333)"><rect width="6" height="6"></rect></g>
<g transform="translate(200,580) scale(3.4333333333333)"><rect width="6" height="6"></rect></g>
<g transform="translate(220,580) scale(3.4333333333333)"><rect width="6" height="6"></rect></g>
<g transform="translate(260,580) scale(3.4333333333333)"><rect width="6" height="6"></rect></g>
<g transform="translate(280,580) scale(3.4333333333333)"><rect width="6" height="6"></rect></g>
<g transform="translate(320,580) scale(3.4333333333333)"><rect width="6" height="6"></rect></g>
<g transform="translate(340,580) scale(3.4333333333333)"><rect width="6" height="6"></rect></g>
<g transform="translate(360,580) scale(3.4333333333333)"><rect width="6" height="6"></rect></g>
<g transform="translate(400,580) scale(3.4333333333333)"><rect width="6" height="6"></rect></g>
<g transform="translate(420,580) scale(3.4333333333333)"><rect width="6" height="6"></rect></g>
<g transform="translate(440,580) scale(3.4333333333333)"><rect width="6" height="6"></rect></g>
<g transform="translate(480,580) scale(3.4333333333333)"><rect width="6" height="6"></rect></g>
<g transform="translate(520,580) scale(3.4333333333333)"><rect width="6" height="6"></rect></g>
<g transform="translate(540,580) scale(3.4333333333333)"><rect width="6" height="6"></rect></g>
<g transform="translate(580,580) scale(3.4333333333333)"><rect width="6" height="6"></rect></g>
<g transform="translate(600,580) scale(3.4333333333333)"><rect width="6" height="6"></rect></g>
<g transform="translate(620,580) scale(3.4333333333333)"><rect width="6" height="6"></rect></g>
<g transform="translate(660,580) scale(3.4333333333333)"><rect width="6" height="6"></rect></g>
<g transform="translate(680,580) scale(3.4333333333333)"><rect width="6" height="6"></rect></g>
<g transform="translate(720,580) scale(3.4333333333333)"><rect width="6" height="6"></rect></g>
<g transform="translate(740,580) scale(3.4333333333333)"><rect width="6" height="6"></rect></g>
<g transform="translate(780,580) scale(3.4333333333333)"><rect width="6" height="6"></rect></g>
<g transform="translate(800,580) scale(3.4333333333333)"><rect width="6" height="6"></rect></g>
<g transform="translate(820,580) scale(3.4333333333333)"><rect width="6" height="6"></rect></g>
<g transform="translate(860,580) scale(3.4333333333333)"><rect width="6" height="6"></rect></g>
<g transform="translate(880,580) scale(3.4333333333333)"><rect width="6" height="6"></rect></g>
<g transform="translate(900,580) scale(3.4333333333333)"><rect width="6" height="6"></rect></g>
<g transform="translate(80,600) scale(3.4333333333333)"><rect width="6" height="6"></rect></g>
<g transform="translate(160,600) scale(3.4333333333333)"><rect width="6" height="6"></rect></g>
<g transform="translate(180,600) scale(3.4333333333333)"><rect width="6" height="6"></rect></g>
<g transform="translate(200,600) scale(3.4333333333333)"><rect width="6" height="6"></rect></g>
<g transform="translate(220,600) scale(3.4333333333333)"><rect width="6" height="6"></rect></g>
<g transform="translate(240,600) scale(3.4333333333333)"><rect width="6" height="6"></rect></g>
<g transform="translate(280,600) scale(3.4333333333333)"><rect width="6" height="6"></rect></g>
<g transform="translate(320,600) scale(3.4333333333333)"><rect width="6" height="6"></rect></g>
<g transform="translate(340,600) scale(3.4333333333333)"><rect width="6" height="6"></rect></g>
<g transform="translate(420,600) scale(3.4333333333333)"><rect width="6" height="6"></rect></g>
<g transform="translate(440,600) scale(3.4333333333333)"><rect width="6" height="6"></rect></g>
<g transform="translate(500,600) scale(3.4333333333333)"><rect width="6" height="6"></rect></g>
<g transform="translate(560,600) scale(3.4333333333333)"><rect width="6" height="6"></rect></g>
<g transform="translate(580,600) scale(3.4333333333333)"><rect width="6" height="6"></rect></g>
<g transform="translate(620,600) scale(3.4333333333333)"><rect width="6" height="6"></rect></g>
<g transform="translate(660,600) scale(3.4333333333333)"><rect width="6" height="6"></rect></g>
<g transform="translate(720,600) scale(3.4333333333333)"><rect width="6" height="6"></rect></g>
<g transform="translate(780,600) scale(3.4333333333333)"><rect width="6" height="6"></rect></g>
<g transform="translate(840,600) scale(3.4333333333333)"><rect width="6" height="6"></rect></g>
<g transform="translate(860,600) scale(3.4333333333333)"><rect width="6" height="6"></rect></g>
<g transform="translate(900,600) scale(3.4333333333333)"><rect width="6" height="6"></rect></g>
<g transform="translate(920,600) scale(3.4333333333333)"><rect width="6" height="6"></rect></g>
<g transform="translate(60,620) scale(3.4333333333333)"><rect width="6" height="6"></rect></g>
<g transform="translate(80,620) scale(3.4333333333333)"><rect width="6" height="6"></rect></g>
<g transform="translate(100,620) scale(3.4333333333333)"><rect width="6" height="6"></rect></g>
<g transform="translate(120,620) scale(3.4333333333333)"><rect width="6" height="6"></rect></g>
<g transform="translate(200,620) scale(3.4333333333333)"><rect width="6" height="6"></rect></g>
<g transform="translate(220,620) scale(3.4333333333333)"><rect width="6" height="6"></rect></g>
<g transform="translate(280,620) scale(3.4333333333333)"><rect width="6" height="6"></rect></g>
<g transform="translate(340,620) scale(3.4333333333333)"><rect width="6" height="6"></rect></g>
<g transform="translate(360,620) scale(3.4333333333333)"><rect width="6" height="6"></rect></g>
<g transform="translate(380,620) scale(3.4333333333333)"><rect width="6" height="6"></rect></g>
<g transform="translate(460,620) scale(3.4333333333333)"><rect width="6" height="6"></rect></g>
<g transform="translate(480,620) scale(3.4333333333333)"><rect width="6" height="6"></rect></g>
<g transform="translate(500,620) scale(3.4333333333333)"><rect width="6" height="6"></rect></g>
<g transform="translate(660,620) scale(3.4333333333333)"><rect width="6" height="6"></rect></g>
<g transform="translate(760,620) scale(3.4333333333333)"><rect width="6" height="6"></rect></g>
<g transform="translate(780,620) scale(3.4333333333333)"><rect width="6" height="6"></rect></g>
<g transform="translate(860,620) scale(3.4333333333333)"><rect width="6" height="6"></rect></g>
<g transform="translate(900,620) scale(3.4333333333333)"><rect width="6" height="6"></rect></g>
<g transform="translate(920,620) scale(3.4333333333333)"><rect width="6" height="6"></rect></g>
<g transform="translate(40,640) scale(3.4333333333333)"><rect width="6" height="6"></rect></g>
<g transform="translate(60,640) scale(3.4333333333333)"><rect width="6" height="6"></rect></g>
<g transform="translate(120,640) scale(3.4333333333333)"><rect width="6" height="6"></rect></g>
<g transform="translate(160,640) scale(3.4333333333333)"><rect width="6" height="6"></rect></g>
<g transform="translate(180,640) scale(3.4333333333333)"><rect width="6" height="6"></rect></g>
<g transform="translate(200,640) scale(3.4333333333333)"><rect width="6" height="6"></rect></g>
<g transform="translate(220,640) scale(3.4333333333333)"><rect width="6" height="6"></rect></g>
<g transform="translate(280,640) scale(3.4333333333333)"><rect width="6" height="6"></rect></g>
<g transform="translate(340,640) scale(3.4333333333333)"><rect width="6" height="6"></rect></g>
<g transform="translate(360,640) scale(3.4333333333333)"><rect width="6" height="6"></rect></g>
<g transform="translate(380,640) scale(3.4333333333333)"><rect width="6" height="6"></rect></g>
<g transform="translate(460,640) scale(3.4333333333333)"><rect width="6" height="6"></rect></g>
<g transform="translate(480,640) scale(3.4333333333333)"><rect width="6" height="6"></rect></g>
<g transform="translate(540,640) scale(3.4333333333333)"><rect width="6" height="6"></rect></g>
<g transform="translate(580,640) scale(3.4333333333333)"><rect width="6" height="6"></rect></g>
<g transform="translate(660,640) scale(3.4333333333333)"><rect width="6" height="6"></rect></g>
<g transform="translate(700,640) scale(3.4333333333333)"><rect width="6" height="6"></rect></g>
<g transform="translate(720,640) scale(3.4333333333333)"><rect width="6" height="6"></rect></g>
<g transform="translate(740,640) scale(3.4333333333333)"><rect width="6" height="6"></rect></g>
<g transform="translate(780,640) scale(3.4333333333333)"><rect width="6" height="6"></rect></g>
<g transform="translate(820,640) scale(3.4333333333333)"><rect width="6" height="6"></rect></g>
<g transform="translate(860,640) scale(3.4333333333333)"><rect width="6" height="6"></rect></g>
<g transform="translate(900,640) scale(3.4333333333333)"><rect width="6" height="6"></rect></g>
<g transform="translate(40,660) scale(3.4333333333333)"><rect width="6" height="6"></rect></g>
<g transform="translate(220,660) scale(3.4333333333333)"><rect width="6" height="6"></rect></g>
<g transform="translate(300,660) scale(3.4333333333333)"><rect width="6" height="6"></rect></g>
<g transform="translate(400,660) scale(3.4333333333333)"><rect width="6" height="6"></rect></g>
<g transform="translate(440,660) scale(3.4333333333333)"><rect width="6" height="6"></rect></g>
<g transform="translate(460,660) scale(3.4333333333333)"><rect width="6" height="6"></rect></g>
<g transform="translate(480,660) scale(3.4333333333333)"><rect width="6" height="6"></rect></g>
<g transform="translate(500,660) scale(3.4333333333333)"><rect width="6" height="6"></rect></g>
<g transform="translate(520,660) scale(3.4333333333333)"><rect width="6" height="6"></rect></g>
<g transform="translate(540,660) scale(3.4333333333333)"><rect width="6" height="6"></rect></g>
<g transform="translate(620,660) scale(3.4333333333333)"><rect width="6" height="6"></rect></g>
<g transform="translate(640,660) scale(3.4333333333333)"><rect width="6" height="6"></rect></g>
<g transform="translate(680,660) scale(3.4333333333333)"><rect width="6" height="6"></rect></g>
<g transform="translate(740,660) scale(3.4333333333333)"><rect width="6" height="6"></rect></g>
<g transform="translate(780,660) scale(3.4333333333333)"><rect width="6" height="6"></rect></g>
<g transform="translate(800,660) scale(3.4333333333333)"><rect width="6" height="6"></rect></g>
<g transform="translate(860,660) scale(3.4333333333333)"><rect width="6" height="6"></rect></g>
<g transform="translate(880,660) scale(3.4333333333333)"><rect width="6" height="6"></rect></g>
<g transform="translate(900,660) scale(3.4333333333333)"><rect width="6" height="6"></rect></g>
<g transform="translate(40,680) scale(3.4333333333333)"><rect width="6" height="6"></rect></g>
<g transform="translate(100,680) scale(3.4333333333333)"><rect width="6" height="6"></rect></g>
<g transform="translate(120,680) scale(3.4333333333333)"><rect width="6" height="6"></rect></g>
<g transform="translate(160,680) scale(3.4333333333333)"><rect width="6" height="6"></rect></g>
<g transform="translate(200,680) scale(3.4333333333333)"><rect width="6" height="6"></rect></g>
<g transform="translate(240,680) scale(3.4333333333333)"><rect width="6" height="6"></rect></g>
<g transform="translate(300,680) scale(3.4333333333333)"><rect width="6" height="6"></rect></g>
<g transform="translate(340,680) scale(3.4333333333333)"><rect width="6" height="6"></rect></g>
<g transform="translate(380,680) scale(3.4333333333333)"><rect width="6" height="6"></rect></g>
<g transform="translate(400,680) scale(3.4333333333333)"><rect width="6" height="6"></rect></g>
<g transform="translate(420,680) scale(3.4333333333333)"><rect width="6" height="6"></rect></g>
<g transform="translate(440,680) scale(3.4333333333333)"><rect width="6" height="6"></rect></g>
<g transform="translate(540,680) scale(3.4333333333333)"><rect width="6" height="6"></rect></g>
<g transform="translate(560,680) scale(3.4333333333333)"><rect width="6" height="6"></rect></g>
<g transform="translate(580,680) scale(3.4333333333333)"><rect width="6" height="6"></rect></g>
<g transform="translate(620,680) scale(3.4333333333333)"><rect width="6" height="6"></rect></g>
<g transform="translate(660,680) scale(3.4333333333333)"><rect width="6" height="6"></rect></g>
<g transform="translate(720,680) scale(3.4333333333333)"><rect width="6" height="6"></rect></g>
<g transform="translate(760,680) scale(3.4333333333333)"><rect width="6" height="6"></rect></g>
<g transform="translate(780,680) scale(3.4333333333333)"><rect width="6" height="6"></rect></g>
<g transform="translate(820,680) scale(3.4333333333333)"><rect width="6" height="6"></rect></g>
<g transform="translate(840,680) scale(3.4333333333333)"><rect width="6" height="6"></rect></g>
<g transform="translate(860,680) scale(3.4333333333333)"><rect width="6" height="6"></rect></g>
<g transform="translate(900,680) scale(3.4333333333333)"><rect width="6" height="6"></rect></g>
<g transform="translate(920,680) scale(3.4333333333333)"><rect width="6" height="6"></rect></g>
<g transform="translate(40,700) scale(3.4333333333333)"><rect width="6" height="6"></rect></g>
<g transform="translate(80,700) scale(3.4333333333333)"><rect width="6" height="6"></rect></g>
<g transform="translate(100,700) scale(3.4333333333333)"><rect width="6" height="6"></rect></g>
<g transform="translate(140,700) scale(3.4333333333333)"><rect width="6" height="6"></rect></g>
<g transform="translate(180,700) scale(3.4333333333333)"><rect width="6" height="6"></rect></g>
<g transform="translate(200,700) scale(3.4333333333333)"><rect width="6" height="6"></rect></g>
<g transform="translate(220,700) scale(3.4333333333333)"><rect width="6" height="6"></rect></g>
<g transform="translate(240,700) scale(3.4333333333333)"><rect width="6" height="6"></rect></g>
<g transform="translate(300,700) scale(3.4333333333333)"><rect width="6" height="6"></rect></g>
<g transform="translate(360,700) scale(3.4333333333333)"><rect width="6" height="6"></rect></g>
<g transform="translate(380,700) scale(3.4333333333333)"><rect width="6" height="6"></rect></g>
<g transform="translate(400,700) scale(3.4333333333333)"><rect width="6" height="6"></rect></g>
<g transform="translate(480,700) scale(3.4333333333333)"><rect width="6" height="6"></rect></g>
<g transform="translate(520,700) scale(3.4333333333333)"><rect width="6" height="6"></rect></g>
<g transform="translate(540,700) scale(3.4333333333333)"><rect width="6" height="6"></rect></g>
<g transform="translate(560,700) scale(3.4333333333333)"><rect width="6" height="6"></rect></g>
<g transform="translate(580,700) scale(3.4333333333333)"><rect width="6" height="6"></rect></g>
<g transform="translate(660,700) scale(3.4333333333333)"><rect width="6" height="6"></rect></g>
<g transform="translate(740,700) scale(3.4333333333333)"><rect width="6" height="6"></rect></g>
<g transform="translate(760,700) scale(3.4333333333333)"><rect width="6" height="6"></rect></g>
<g transform="translate(800,700) scale(3.4333333333333)"><rect width="6" height="6"></rect></g>
<g transform="translate(860,700) scale(3.4333333333333)"><rect width="6" height="6"></rect></g>
<g transform="translate(880,700) scale(3.4333333333333)"><rect width="6" height="6"></rect></g>
<g transform="translate(920,700) scale(3.4333333333333)"><rect width="6" height="6"></rect></g>
<g transform="translate(120,720) scale(3.4333333333333)"><rect width="6" height="6"></rect></g>
<g transform="translate(160,720) scale(3.4333333333333)"><rect width="6" height="6"></rect></g>
<g transform="translate(240,720) scale(3.4333333333333)"><rect width="6" height="6"></rect></g>
<g transform="translate(260,720) scale(3.4333333333333)"><rect width="6" height="6"></rect></g>
<g transform="translate(300,720) scale(3.4333333333333)"><rect width="6" height="6"></rect></g>
<g transform="translate(400,720) scale(3.4333333333333)"><rect width="6" height="6"></rect></g>
<g transform="translate(420,720) scale(3.4333333333333)"><rect width="6" height="6"></rect></g>
<g transform="translate(440,720) scale(3.4333333333333)"><rect width="6" height="6"></rect></g>
<g transform="translate(460,720) scale(3.4333333333333)"><rect width="6" height="6"></rect></g>
<g transform="translate(520,720) scale(3.4333333333333)"><rect width="6" height="6"></rect></g>
<g transform="translate(540,720) scale(3.4333333333333)"><rect width="6" height="6"></rect></g>
<g transform="translate(560,720) scale(3.4333333333333)"><rect width="6" height="6"></rect></g>
<g transform="translate(600,720) scale(3.4333333333333)"><rect width="6" height="6"></rect></g>
<g transform="translate(640,720) scale(3.4333333333333)"><rect width="6" height="6"></rect></g>
<g transform="translate(680,720) scale(3.4333333333333)"><rect width="6" height="6"></rect></g>
<g transform="translate(700,720) scale(3.4333333333333)"><rect width="6" height="6"></rect></g>
<g transform="translate(720,720) scale(3.4333333333333)"><rect width="6" height="6"></rect></g>
<g transform="translate(760,720) scale(3.4333333333333)"><rect width="6" height="6"></rect></g>
<g transform="translate(780,720) scale(3.4333333333333)"><rect width="6" height="6"></rect></g>
<g transform="translate(820,720) scale(3.4333333333333)"><rect width="6" height="6"></rect></g>
<g transform="translate(880,720) scale(3.4333333333333)"><rect width="6" height="6"></rect></g>
<g transform="translate(900,720) scale(3.4333333333333)"><rect width="6" height="6"></rect></g>
<g transform="translate(60,740) scale(3.4333333333333)"><rect width="6" height="6"></rect></g>
<g transform="translate(80,740) scale(3.4333333333333)"><rect width="6" height="6"></rect></g>
<g transform="translate(100,740) scale(3.4333333333333)"><rect width="6" height="6"></rect></g>
<g transform="translate(120,740) scale(3.4333333333333)"><rect width="6" height="6"></rect></g>
<g transform="translate(200,740) scale(3.4333333333333)"><rect width="6" height="6"></rect></g>
<g transform="translate(220,740) scale(3.4333333333333)"><rect width="6" height="6"></rect></g>
<g transform="translate(340,740) scale(3.4333333333333)"><rect width="6" height="6"></rect></g>
<g transform="translate(380,740) scale(3.4333333333333)"><rect width="6" height="6"></rect></g>
<g transform="translate(400,740) scale(3.4333333333333)"><rect width="6" height="6"></rect></g>
<g transform="translate(460,740) scale(3.4333333333333)"><rect width="6" height="6"></rect></g>
<g transform="translate(480,740) scale(3.4333333333333)"><rect width="6" height="6"></rect></g>
<g transform="translate(500,740) scale(3.4333333333333)"><rect width="6" height="6"></rect></g>
<g transform="translate(540,740) scale(3.4333333333333)"><rect width="6" height="6"></rect></g>
<g transform="translate(600,740) scale(3.4333333333333)"><rect width="6" height="6"></rect></g>
<g transform="translate(620,740) scale(3.4333333333333)"><rect width="6" height="6"></rect></g>
<g transform="translate(640,740) scale(3.4333333333333)"><rect width="6" height="6"></rect></g>
<g transform="translate(660,740) scale(3.4333333333333)"><rect width="6" height="6"></rect></g>
<g transform="translate(680,740) scale(3.4333333333333)"><rect width="6" height="6"></rect></g>
<g transform="translate(740,740) scale(3.4333333333333)"><rect width="6" height="6"></rect></g>
<g transform="translate(800,740) scale(3.4333333333333)"><rect width="6" height="6"></rect></g>
<g transform="translate(860,740) scale(3.4333333333333)"><rect width="6" height="6"></rect></g>
<g transform="translate(880,740) scale(3.4333333333333)"><rect width="6" height="6"></rect></g>
<g transform="translate(900,740) scale(3.4333333333333)"><rect width="6" height="6"></rect></g>
<g transform="translate(40,760) scale(3.4333333333333)"><rect width="6" height="6"></rect></g>
<g transform="translate(100,760) scale(3.4333333333333)"><rect width="6" height="6"></rect></g>
<g transform="translate(120,760) scale(3.4333333333333)"><rect width="6" height="6"></rect></g>
<g transform="translate(160,760) scale(3.4333333333333)"><rect width="6" height="6"></rect></g>
<g transform="translate(200,760) scale(3.4333333333333)"><rect width="6" height="6"></rect></g>
<g transform="translate(220,760) scale(3.4333333333333)"><rect width="6" height="6"></rect></g>
<g transform="translate(260,760) scale(3.4333333333333)"><rect width="6" height="6"></rect></g>
<g transform="translate(300,760) scale(3.4333333333333)"><rect width="6" height="6"></rect></g>
<g transform="translate(340,760) scale(3.4333333333333)"><rect width="6" height="6"></rect></g>
<g transform="translate(400,760) scale(3.4333333333333)"><rect width="6" height="6"></rect></g>
<g transform="translate(440,760) scale(3.4333333333333)"><rect width="6" height="6"></rect></g>
<g transform="translate(460,760) scale(3.4333333333333)"><rect width="6" height="6"></rect></g>
<g transform="translate(480,760) scale(3.4333333333333)"><rect width="6" height="6"></rect></g>
<g transform="translate(500,760) scale(3.4333333333333)"><rect width="6" height="6"></rect></g>
<g transform="translate(520,760) scale(3.4333333333333)"><rect width="6" height="6"></rect></g>
<g transform="translate(540,760) scale(3.4333333333333)"><rect width="6" height="6"></rect></g>
<g transform="translate(600,760) scale(3.4333333333333)"><rect width="6" height="6"></rect></g>
<g transform="translate(620,760) scale(3.4333333333333)"><rect width="6" height="6"></rect></g>
<g transform="translate(640,760) scale(3.4333333333333)"><rect width="6" height="6"></rect></g>
<g transform="translate(660,760) scale(3.4333333333333)"><rect width="6" height="6"></rect></g>
<g transform="translate(700,760) scale(3.4333333333333)"><rect width="6" height="6"></rect></g>
<g transform="translate(720,760) scale(3.4333333333333)"><rect width="6" height="6"></rect></g>
<g transform="translate(760,760) scale(3.4333333333333)"><rect width="6" height="6"></rect></g>
<g transform="translate(780,760) scale(3.4333333333333)"><rect width="6" height="6"></rect></g>
<g transform="translate(800,760) scale(3.4333333333333)"><rect width="6" height="6"></rect></g>
<g transform="translate(820,760) scale(3.4333333333333)"><rect width="6" height="6"></rect></g>
<g transform="translate(840,760) scale(3.4333333333333)"><rect width="6" height="6"></rect></g>
<g transform="translate(860,760) scale(3.4333333333333)"><rect width="6" height="6"></rect></g>
<g transform="translate(900,760) scale(3.4333333333333)"><rect width="6" height="6"></rect></g>
<g transform="translate(200,780) scale(3.4333333333333)"><rect width="6" height="6"></rect></g>
<g transform="translate(260,780) scale(3.4333333333333)"><rect width="6" height="6"></rect></g>
<g transform="translate(320,780) scale(3.4333333333333)"><rect width="6" height="6"></rect></g>
<g transform="translate(340,780) scale(3.4333333333333)"><rect width="6" height="6"></rect></g>
<g transform="translate(380,780) scale(3.4333333333333)"><rect width="6" height="6"></rect></g>
<g transform="translate(420,780) scale(3.4333333333333)"><rect width="6" height="6"></rect></g>
<g transform="translate(440,780) scale(3.4333333333333)"><rect width="6" height="6"></rect></g>
<g transform="translate(520,780) scale(3.4333333333333)"><rect width="6" height="6"></rect></g>
<g transform="translate(540,780) scale(3.4333333333333)"><rect width="6" height="6"></rect></g>
<g transform="translate(560,780) scale(3.4333333333333)"><rect width="6" height="6"></rect></g>
<g transform="translate(580,780) scale(3.4333333333333)"><rect width="6" height="6"></rect></g>
<g transform="translate(600,780) scale(3.4333333333333)"><rect width="6" height="6"></rect></g>
<g transform="translate(660,780) scale(3.4333333333333)"><rect width="6" height="6"></rect></g>
<g transform="translate(740,780) scale(3.4333333333333)"><rect width="6" height="6"></rect></g>
<g transform="translate(760,780) scale(3.4333333333333)"><rect width="6" height="6"></rect></g>
<g transform="translate(840,780) scale(3.4333333333333)"><rect width="6" height="6"></rect></g>
<g transform="translate(860,780) scale(3.4333333333333)"><rect width="6" height="6"></rect></g>
<g transform="translate(920,780) scale(3.4333333333333)"><rect width="6" height="6"></rect></g>
<g transform="translate(220,800) scale(3.4333333333333)"><rect width="6" height="6"></rect></g>
<g transform="translate(280,800) scale(3.4333333333333)"><rect width="6" height="6"></rect></g>
<g transform="translate(340,800) scale(3.4333333333333)"><rect width="6" height="6"></rect></g>
<g transform="translate(380,800) scale(3.4333333333333)"><rect width="6" height="6"></rect></g>
<g transform="translate(420,800) scale(3.4333333333333)"><rect width="6" height="6"></rect></g>
<g transform="translate(440,800) scale(3.4333333333333)"><rect width="6" height="6"></rect></g>
<g transform="translate(480,800) scale(3.4333333333333)"><rect width="6" height="6"></rect></g>
<g transform="translate(520,800) scale(3.4333333333333)"><rect width="6" height="6"></rect></g>
<g transform="translate(540,800) scale(3.4333333333333)"><rect width="6" height="6"></rect></g>
<g transform="translate(580,800) scale(3.4333333333333)"><rect width="6" height="6"></rect></g>
<g transform="translate(680,800) scale(3.4333333333333)"><rect width="6" height="6"></rect></g>
<g transform="translate(700,800) scale(3.4333333333333)"><rect width="6" height="6"></rect></g>
<g transform="translate(720,800) scale(3.4333333333333)"><rect width="6" height="6"></rect></g>
<g transform="translate(740,800) scale(3.4333333333333)"><rect width="6" height="6"></rect></g>
<g transform="translate(760,800) scale(3.4333333333333)"><rect width="6" height="6"></rect></g>
<g transform="translate(800,800) scale(3.4333333333333)"><rect width="6" height="6"></rect></g>
<g transform="translate(840,800) scale(3.4333333333333)"><rect width="6" height="6"></rect></g>
<g transform="translate(880,800) scale(3.4333333333333)"><rect width="6" height="6"></rect></g>
<g transform="translate(900,800) scale(3.4333333333333)"><rect width="6" height="6"></rect></g>
<g transform="translate(220,820) scale(3.4333333333333)"><rect width="6" height="6"></rect></g>
<g transform="translate(300,820) scale(3.4333333333333)"><rect width="6" height="6"></rect></g>
<g transform="translate(320,820) scale(3.4333333333333)"><rect width="6" height="6"></rect></g>
<g transform="translate(380,820) scale(3.4333333333333)"><rect width="6" height="6"></rect></g>
<g transform="translate(420,820) scale(3.4333333333333)"><rect width="6" height="6"></rect></g>
<g transform="translate(440,820) scale(3.4333333333333)"><rect width="6" height="6"></rect></g>
<g transform="translate(520,820) scale(3.4333333333333)"><rect width="6" height="6"></rect></g>
<g transform="translate(540,820) scale(3.4333333333333)"><rect width="6" height="6"></rect></g>
<g transform="translate(580,820) scale(3.4333333333333)"><rect width="6" height="6"></rect></g>
<g transform="translate(600,820) scale(3.4333333333333)"><rect width="6" height="6"></rect></g>
<g transform="translate(620,820) scale(3.4333333333333)"><rect width="6" height="6"></rect></g>
<g transform="translate(680,820) scale(3.4333333333333)"><rect width="6" height="6"></rect></g>
<g transform="translate(700,820) scale(3.4333333333333)"><rect width="6" height="6"></rect></g>
<g transform="translate(760,820) scale(3.4333333333333)"><rect width="6" height="6"></rect></g>
<g transform="translate(840,820) scale(3.4333333333333)"><rect width="6" height="6"></rect></g>
<g transform="translate(860,820) scale(3.4333333333333)"><rect width="6" height="6"></rect></g>
<g transform="translate(880,820) scale(3.4333333333333)"><rect width="6" height="6"></rect></g>
<g transform="translate(900,820) scale(3.4333333333333)"><rect width="6" height="6"></rect></g>
<g transform="translate(920,820) scale(3.4333333333333)"><rect width="6" height="6"></rect></g>
<g transform="translate(200,840) scale(3.4333333333333)"><rect width="6" height="6"></rect></g>
<g transform="translate(220,840) scale(3.4333333333333)"><rect width="6" height="6"></rect></g>
<g transform="translate(280,840) scale(3.4333333333333)"><rect width="6" height="6"></rect></g>
<g transform="translate(300,840) scale(3.4333333333333)"><rect width="6" height="6"></rect></g>
<g transform="translate(380,840) scale(3.4333333333333)"><rect width="6" height="6"></rect></g>
<g transform="translate(440,840) scale(3.4333333333333)"><rect width="6" height="6"></rect></g>
<g transform="translate(460,840) scale(3.4333333333333)"><rect width="6" height="6"></rect></g>
<g transform="translate(480,840) scale(3.4333333333333)"><rect width="6" height="6"></rect></g>
<g transform="translate(500,840) scale(3.4333333333333)"><rect width="6" height="6"></rect></g>
<g transform="translate(520,840) scale(3.4333333333333)"><rect width="6" height="6"></rect></g>
<g transform="translate(560,840) scale(3.4333333333333)"><rect width="6" height="6"></rect></g>
<g transform="translate(580,840) scale(3.4333333333333)"><rect width="6" height="6"></rect></g>
<g transform="translate(620,840) scale(3.4333333333333)"><rect width="6" height="6"></rect></g>
<g transform="translate(640,840) scale(3.4333333333333)"><rect width="6" height="6"></rect></g>
<g transform="translate(660,840) scale(3.4333333333333)"><rect width="6" height="6"></rect></g>
<g transform="translate(700,840) scale(3.4333333333333)"><rect width="6" height="6"></rect></g>
<g transform="translate(760,840) scale(3.4333333333333)"><rect width="6" height="6"></rect></g>
<g transform="translate(780,840) scale(3.4333333333333)"><rect width="6" height="6"></rect></g>
<g transform="translate(800,840) scale(3.4333333333333)"><rect width="6" height="6"></rect></g>
<g transform="translate(820,840) scale(3.4333333333333)"><rect width="6" height="6"></rect></g>
<g transform="translate(840,840) scale(3.4333333333333)"><rect width="6" height="6"></rect></g>
<g transform="translate(920,840) scale(3.4333333333333)"><rect width="6" height="6"></rect></g>
<g transform="translate(200,860) scale(3.4333333333333)"><rect width="6" height="6"></rect></g>
<g transform="translate(280,860) scale(3.4333333333333)"><rect width="6" height="6"></rect></g>
<g transform="translate(300,860) scale(3.4333333333333)"><rect width="6" height="6"></rect></g>
<g transform="translate(320,860) scale(3.4333333333333)"><rect width="6" height="6"></rect></g>
<g transform="translate(340,860) scale(3.4333333333333)"><rect width="6" height="6"></rect></g>
<g transform="translate(380,860) scale(3.4333333333333)"><rect width="6" height="6"></rect></g>
<g transform="translate(400,860) scale(3.4333333333333)"><rect width="6" height="6"></rect></g>
<g transform="translate(420,860) scale(3.4333333333333)"><rect width="6" height="6"></rect></g>
<g transform="translate(440,860) scale(3.4333333333333)"><rect width="6" height="6"></rect></g>
<g transform="translate(480,860) scale(3.4333333333333)"><rect width="6" height="6"></rect></g>
<g transform="translate(520,860) scale(3.4333333333333)"><rect width="6" height="6"></rect></g>
<g transform="translate(540,860) scale(3.4333333333333)"><rect width="6" height="6"></rect></g>
<g transform="translate(560,860) scale(3.4333333333333)"><rect width="6" height="6"></rect></g>
<g transform="translate(580,860) scale(3.4333333333333)"><rect width="6" height="6"></rect></g>
<g transform="translate(600,860) scale(3.4333333333333)"><rect width="6" height="6"></rect></g>
<g transform="translate(660,860) scale(3.4333333333333)"><rect width="6" height="6"></rect></g>
<g transform="translate(820,860) scale(3.4333333333333)"><rect width="6" height="6"></rect></g>
<g transform="translate(840,860) scale(3.4333333333333)"><rect width="6" height="6"></rect></g>
<g transform="translate(200,880) scale(3.4333333333333)"><rect width="6" height="6"></rect></g>
<g transform="translate(240,880) scale(3.4333333333333)"><rect width="6" height="6"></rect></g>
<g transform="translate(260,880) scale(3.4333333333333)"><rect width="6" height="6"></rect></g>
<g transform="translate(300,880) scale(3.4333333333333)"><rect width="6" height="6"></rect></g>
<g transform="translate(320,880) scale(3.4333333333333)"><rect width="6" height="6"></rect></g>
<g transform="translate(340,880) scale(3.4333333333333)"><rect width="6" height="6"></rect></g>
<g transform="translate(360,880) scale(3.4333333333333)"><rect width="6" height="6"></rect></g>
<g transform="translate(400,880) scale(3.4333333333333)"><rect width="6" height="6"></rect></g>
<g transform="translate(440,880) scale(3.4333333333333)"><rect width="6" height="6"></rect></g>
<g transform="translate(480,880) scale(3.4333333333333)"><rect width="6" height="6"></rect></g>
<g transform="translate(500,880) scale(3.4333333333333)"><rect width="6" height="6"></rect></g>
<g transform="translate(520,880) scale(3.4333333333333)"><rect width="6" height="6"></rect></g>
<g transform="translate(600,880) scale(3.4333333333333)"><rect width="6" height="6"></rect></g>
<g transform="translate(620,880) scale(3.4333333333333)"><rect width="6" height="6"></rect></g>
<g transform="translate(640,880) scale(3.4333333333333)"><rect width="6" height="6"></rect></g>
<g transform="translate(660,880) scale(3.4333333333333)"><rect width="6" height="6"></rect></g>
<g transform="translate(680,880) scale(3.4333333333333)"><rect width="6" height="6"></rect></g>
<g transform="translate(720,880) scale(3.4333333333333)"><rect width="6" height="6"></rect></g>
<g transform="translate(740,880) scale(3.4333333333333)"><rect width="6" height="6"></rect></g>
<g transform="translate(760,880) scale(3.4333333333333)"><rect width="6" height="6"></rect></g>
<g transform="translate(780,880) scale(3.4333333333333)"><rect width="6" height="6"></rect></g>
<g transform="translate(800,880) scale(3.4333333333333)"><rect width="6" height="6"></rect></g>
<g transform="translate(860,880) scale(3.4333333333333)"><rect width="6" height="6"></rect></g>
<g transform="translate(880,880) scale(3.4333333333333)"><rect width="6" height="6"></rect></g>
<g transform="translate(900,880) scale(3.4333333333333)"><rect width="6" height="6"></rect></g>
<g transform="translate(220,900) scale(3.4333333333333)"><rect width="6" height="6"></rect></g>
<g transform="translate(240,900) scale(3.4333333333333)"><rect width="6" height="6"></rect></g>
<g transform="translate(260,900) scale(3.4333333333333)"><rect width="6" height="6"></rect></g>
<g transform="translate(300,900) scale(3.4333333333333)"><rect width="6" height="6"></rect></g>
<g transform="translate(320,900) scale(3.4333333333333)"><rect width="6" height="6"></rect></g>
<g transform="translate(380,900) scale(3.4333333333333)"><rect width="6" height="6"></rect></g>
<g transform="translate(400,900) scale(3.4333333333333)"><rect width="6" height="6"></rect></g>
<g transform="translate(480,900) scale(3.4333333333333)"><rect width="6" height="6"></rect></g>
<g transform="translate(500,900) scale(3.4333333333333)"><rect width="6" height="6"></rect></g>
<g transform="translate(520,900) scale(3.4333333333333)"><rect width="6" height="6"></rect></g>
<g transform="translate(620,900) scale(3.4333333333333)"><rect width="6" height="6"></rect></g>
<g transform="translate(680,900) scale(3.4333333333333)"><rect width="6" height="6"></rect></g>
<g transform="translate(740,900) scale(3.4333333333333)"><rect width="6" height="6"></rect></g>
<g transform="translate(760,900) scale(3.4333333333333)"><rect width="6" height="6"></rect></g>
<g transform="translate(820,900) scale(3.4333333333333)"><rect width="6" height="6"></rect></g>
<g transform="translate(840,900) scale(3.4333333333333)"><rect width="6" height="6"></rect></g>
<g transform="translate(860,900) scale(3.4333333333333)"><rect width="6" height="6"></rect></g>
<g transform="translate(880,900) scale(3.4333333333333)"><rect width="6" height="6"></rect></g>
<g transform="translate(240,920) scale(3.4333333333333)"><rect width="6" height="6"></rect></g>
<g transform="translate(260,920) scale(3.4333333333333)"><rect width="6" height="6"></rect></g>
<g transform="translate(300,920) scale(3.4333333333333)"><rect width="6" height="6"></rect></g>
<g transform="translate(360,920) scale(3.4333333333333)"><rect width="6" height="6"></rect></g>
<g transform="translate(400,920) scale(3.4333333333333)"><rect width="6" height="6"></rect></g>
<g transform="translate(420,920) scale(3.4333333333333)"><rect width="6" height="6"></rect></g>
<g transform="translate(440,920) scale(3.4333333333333)"><rect width="6" height="6"></rect></g>
<g transform="translate(460,920) scale(3.4333333333333)"><rect width="6" height="6"></rect></g>
<g transform="translate(480,920) scale(3.4333333333333)"><rect width="6" height="6"></rect></g>
<g transform="translate(500,920) scale(3.4333333333333)"><rect width="6" height="6"></rect></g>
<g transform="translate(520,920) scale(3.4333333333333)"><rect width="6" height="6"></rect></g>
<g transform="translate(560,920) scale(3.4333333333333)"><rect width="6" height="6"></rect></g>
<g transform="translate(640,920) scale(3.4333333333333)"><rect width="6" height="6"></rect></g>
<g transform="translate(660,920) scale(3.4333333333333)"><rect width="6" height="6"></rect></g>
<g transform="translate(700,920) scale(3.4333333333333)"><rect width="6" height="6"></rect></g>
<g transform="translate(740,920) scale(3.4333333333333)"><rect width="6" height="6"></rect></g>
<g transform="translate(760,920) scale(3.4333333333333)"><rect width="6" height="6"></rect></g>
<g transform="translate(780,920) scale(3.4333333333333)"><rect width="6" height="6"></rect></g>
<g transform="translate(800,920) scale(3.4333333333333)"><rect width="6" height="6"></rect></g>
<g transform="translate(820,920) scale(3.4333333333333)"><rect width="6" height="6"></rect></g>
<g transform="translate(900,920) scale(3.4333333333333)"><rect width="6" height="6"></rect></g>
</g></g></mask></defs>
<rect width="980" height="980" fill="#FFFFFF" x="0" y="0"></rect>
<rect x="0" y="0" width="980" height="980" mask="url(#qrmask)" fill="#000000"></rect>
<g><g transform="translate(40,40)" fill="#000000"><g transform="scale(10)"><path d="M0,0v14h14V0H0z M12,12H2V2h10V12z"></path></g></g>
<g transform="translate(80,80)" fill="#000000"><g transform="scale(10)"><rect width="6" height="6"></rect></g></g>
<g transform="translate(800,40)" fill="#000000"><g transform="scale(10)"><path d="M0,0v14h14V0H0z M12,12H2V2h10V12z"></path></g></g>
<g transform="translate(840,80)" fill="#000000"><g transform="scale(10)"><rect width="6" height="6"></rect></g></g>
<g transform="translate(40,800)" fill="#000000"><g transform="scale(10)"><path d="M0,0v14h14V0H0z M12,12H2V2h10V12z"></path></g></g>
<g transform="translate(80,840)" fill="#000000"><g transform="scale(10)"><rect width="6" height="6"></rect></g></g></g>
</svg>